<svg width="30.000000" height="30.000000" viewBox="0 0 30 30" fill="none" xmlns="http://www.w3.org/2000/svg" xmlns:xlink="http://www.w3.org/1999/xlink">
	<desc>
			Created with Pixso.
	</desc>
	<defs>
		<clipPath id="clip1_149">
			<rect id="Frame" rx="0.000000" width="29.000000" height="29.000000" transform="translate(0.500000 0.500000)" fill="white" fill-opacity="0"/>
		</clipPath>
	</defs>
	<rect id="Frame" rx="0.000000" width="29.000000" height="29.000000" transform="translate(0.500000 0.500000)" fill="#FFFFFF" fill-opacity="0"/>
	<g clip-path="url(#clip1_149)">
		<path id="Vector" d="M15 0C6.71 0 0 6.75 0 15.09C0 22.62 5.48 28.86 12.65 30L12.65 19.45L8.84 19.45L8.84 15.09L12.65 15.09L12.65 11.76C12.65 7.98 14.89 5.89 18.32 5.89C19.96 5.89 21.67 6.18 21.67 6.18L21.67 9.9L19.78 9.9C17.92 9.9 17.34 11.06 17.34 12.26L17.34 15.09L21.5 15.09L20.83 19.45L17.34 19.45L17.34 30C24.51 28.86 30 22.62 30 15.09C30 6.75 23.28 0 15 0Z" fill="#5540BF" fill-opacity="1.000000" fill-rule="nonzero"/>
	</g>
</svg>
