<svg width="30.000000" height="30.000000" viewBox="0 0 30 30" fill="none" xmlns="http://www.w3.org/2000/svg" xmlns:xlink="http://www.w3.org/1999/xlink">
	<desc>
			Created with Pixso.
	</desc>
	<defs>
		<clipPath id="clip1_152">
			<rect id="iconmonstr-telegram-4 1" rx="0.000000" width="29.000000" height="29.000000" transform="translate(0.500000 0.500000)" fill="white" fill-opacity="0"/>
		</clipPath>
	</defs>
	<rect id="iconmonstr-telegram-4 1" rx="0.000000" width="29.000000" height="29.000000" transform="translate(0.500000 0.500000)" fill="#FFFFFF" fill-opacity="0"/>
	<g clip-path="url(#clip1_152)">
		<path id="telegram 4" d="M15 0C6.71 0 0 6.71 0 15C0 23.28 6.71 30 15 30C23.28 30 30 23.28 30 15C30 6.71 23.28 0 15 0ZM19.03 22.33C19.26 22.5 19.56 22.54 19.83 22.44C20.1 22.34 20.3 22.11 20.36 21.83C20.99 18.85 22.53 11.31 23.11 8.6C23.15 8.4 23.08 8.19 22.92 8.05C22.76 7.91 22.54 7.88 22.34 7.95C19.28 9.08 9.86 12.61 6.02 14.04C5.77 14.13 5.61 14.36 5.62 14.62C5.63 14.88 5.8 15.1 6.05 15.18C7.78 15.69 10.04 16.41 10.04 16.41C10.04 16.41 11.1 19.61 11.65 21.23C11.72 21.44 11.88 21.6 12.09 21.65C12.31 21.71 12.53 21.65 12.69 21.5C13.57 20.67 14.94 19.37 14.94 19.37C14.94 19.37 17.55 21.28 19.03 22.33ZM11 16.01L12.22 20.04L12.49 17.49C12.49 17.49 17.22 13.22 19.92 10.79C20 10.72 20.01 10.6 19.94 10.52C19.88 10.43 19.76 10.41 19.67 10.47C16.54 12.46 11 16.01 11 16.01Z" fill="#5540BF" fill-opacity="1.000000" fill-rule="evenodd"/>
	</g>
</svg>
