<svg width="30.000000" height="30.000000" viewBox="0 0 30 30" fill="none" xmlns="http://www.w3.org/2000/svg" xmlns:xlink="http://www.w3.org/1999/xlink">
	<desc>
			Created with Pixso.
	</desc>
	<defs/>
	<path id="Vector" d="M19.6 0L10.39 0C1.99 0 0 1.99 0 10.39L0 19.6C0 28 1.99 30 10.39 30L19.6 30C28 30 30 28 30 19.6L30 10.39C30 1.99 27.98 0 19.6 0ZM24.22 21.4L22.03 21.4C21.21 21.4 20.95 20.74 19.47 19.24C18.18 17.99 17.61 17.82 17.29 17.82C16.85 17.82 16.72 17.95 16.72 18.56L16.72 20.53C16.72 21.06 16.55 21.38 15.15 21.38C12.85 21.38 10.28 19.98 8.48 17.38C5.77 13.57 5.03 10.71 5.03 10.12C5.03 9.8 5.16 9.5 5.77 9.5L7.96 9.5C8.51 9.5 8.72 9.76 8.93 10.35C10.01 13.46 11.81 16.19 12.55 16.19C12.82 16.19 12.95 16.06 12.95 15.37L12.95 12.15C12.87 10.67 12.08 10.54 12.08 10.01C12.08 9.76 12.3 9.5 12.63 9.5L16.06 9.5C16.53 9.5 16.7 9.76 16.7 10.31L16.7 14.65C16.7 15.11 16.91 15.28 17.04 15.28C17.31 15.28 17.55 15.11 18.05 14.6C19.62 12.85 20.74 10.14 20.74 10.14C20.89 9.82 21.15 9.52 21.7 9.52L23.88 9.52C24.53 9.52 24.68 9.86 24.53 10.33C24.26 11.6 21.59 15.37 21.59 15.37C21.36 15.75 21.27 15.92 21.59 16.34C21.82 16.66 22.59 17.31 23.09 17.91C24.02 18.96 24.74 19.85 24.94 20.47C25.15 21.08 24.83 21.4 24.22 21.4Z" fill="#5540BF" fill-opacity="1.000000" fill-rule="evenodd"/>
</svg>
