<svg width="29.531250" height="30.000000" viewBox="0 0 29.5312 30" fill="none" xmlns="http://www.w3.org/2000/svg" xmlns:xlink="http://www.w3.org/1999/xlink">
	<desc>
			Created with Pixso.
	</desc>
	<defs>
		<clipPath id="clip1_145">
			<rect id="Frame" rx="0.000000" width="28.531250" height="29.000000" transform="translate(0.500000 0.500000)" fill="white" fill-opacity="0"/>
		</clipPath>
	</defs>
	<rect id="Frame" rx="0.000000" width="28.531250" height="29.000000" transform="translate(0.500000 0.500000)" fill="#FFFFFF" fill-opacity="0"/>
	<g clip-path="url(#clip1_145)">
		<path id="Vector" d="M25.22 4.35C22.45 1.54 18.76 0 14.82 0C6.72 0 0.12 6.66 0.12 14.86C0.12 17.48 0.79 20.04 2.08 22.29L0 30L7.79 27.93C9.94 29.11 12.36 29.74 14.82 29.74L14.82 29.74C22.93 29.74 29.52 23.07 29.53 14.87C29.53 10.9 28 7.16 25.22 4.35ZM14.82 27.23L14.82 27.23C12.63 27.23 10.47 26.63 8.6 25.5L8.15 25.24L3.53 26.46L4.76 21.9L4.47 21.44C3.25 19.47 2.6 17.19 2.6 14.86C2.6 8.05 8.09 2.51 14.83 2.51C18.09 2.51 21.16 3.79 23.47 6.13C25.78 8.46 27.05 11.57 27.04 14.87C27.04 21.68 21.56 27.23 14.82 27.23ZM21.53 17.97C21.16 17.79 19.35 16.89 19.02 16.76C18.68 16.64 18.43 16.58 18.19 16.95C17.94 17.32 17.24 18.16 17.03 18.41C16.81 18.65 16.6 18.69 16.23 18.5C15.86 18.31 14.68 17.92 13.28 16.66C12.18 15.67 11.45 14.45 11.23 14.08C11.02 13.71 11.21 13.51 11.39 13.33C11.56 13.16 11.76 12.89 11.94 12.67C12.13 12.46 12.19 12.3 12.31 12.05C12.43 11.81 12.37 11.59 12.28 11.4C12.19 11.22 11.45 9.39 11.15 8.65C10.85 7.92 10.55 8.02 10.32 8.01C10.11 8 9.86 8 9.62 8C9.37 8 8.97 8.09 8.64 8.46C8.3 8.83 7.35 9.73 7.35 11.56C7.35 13.39 8.67 15.15 8.85 15.4C9.04 15.65 11.44 19.4 15.13 21.01C16 21.39 16.69 21.62 17.22 21.79C18.1 22.08 18.9 22.04 19.54 21.94C20.24 21.83 21.71 21.04 22.02 20.17C22.32 19.31 22.32 18.56 22.23 18.41C22.14 18.25 21.89 18.16 21.53 17.97Z" fill="#5540BF" fill-opacity="1.000000" fill-rule="evenodd"/>
	</g>
</svg>
