<svg width="86.000008" height="70.000000" viewBox="0 0 86 70" fill="none" xmlns="http://www.w3.org/2000/svg" xmlns:xlink="http://www.w3.org/1999/xlink">
	<desc>
			Created with Pixso.
	</desc>
	<defs/>
	<circle id="Ellipse 51" r="3.000000" transform="matrix(-1 8.74228e-08 -8.74228e-08 -1 83 67)" fill="#FFD100" fill-opacity="1.000000"/>
	<circle id="Ellipse 57" r="3.000000" transform="matrix(-1 8.74228e-08 -8.74228e-08 -1 83 51)" fill="#FFD100" fill-opacity="1.000000"/>
	<circle id="Ellipse 52" r="3.000000" transform="matrix(-1 8.74228e-08 -8.74228e-08 -1 67 67)" fill="#FFD100" fill-opacity="1.000000"/>
	<circle id="Ellipse 58" r="3.000000" transform="matrix(-1 8.74228e-08 -8.74228e-08 -1 67 51)" fill="#FFD100" fill-opacity="1.000000"/>
	<circle id="Ellipse 53" r="3.000000" transform="matrix(-1 8.74228e-08 -8.74228e-08 -1 51 67)" fill="#FFD100" fill-opacity="1.000000"/>
	<circle id="Ellipse 59" r="3.000000" transform="matrix(-1 8.74228e-08 -8.74228e-08 -1 51 51)" fill="#FFD100" fill-opacity="1.000000"/>
	<circle id="Ellipse 54" r="3.000000" transform="matrix(-1 8.74228e-08 -8.74228e-08 -1 35 67)" fill="#FFD100" fill-opacity="1.000000"/>
	<circle id="Ellipse 60" r="3.000000" transform="matrix(-1 8.74228e-08 -8.74228e-08 -1 35 51)" fill="#FFD100" fill-opacity="1.000000"/>
	<circle id="Ellipse 66" r="3.000000" transform="matrix(-1 8.74228e-08 -8.74228e-08 -1 35 35)" fill="#FFD100" fill-opacity="1.000000"/>
	<circle id="Ellipse 81" r="3.000000" transform="matrix(-1 8.74228e-08 -8.74228e-08 -1 51 35)" fill="#FFD100" fill-opacity="1.000000"/>
	<circle id="Ellipse 72" r="3.000000" transform="matrix(-1 8.74228e-08 -8.74228e-08 -1 35 19)" fill="#FFD100" fill-opacity="1.000000"/>
	<circle id="Ellipse 78" r="3.000000" transform="matrix(-1 8.74228e-08 -8.74228e-08 -1 35 3)" fill="#FFD100" fill-opacity="1.000000"/>
	<circle id="Ellipse 55" r="3.000000" transform="matrix(-1 8.74228e-08 -8.74228e-08 -1 19 67)" fill="#FFD100" fill-opacity="1.000000"/>
	<circle id="Ellipse 61" r="3.000000" transform="matrix(-1 8.74228e-08 -8.74228e-08 -1 19 51)" fill="#FFD100" fill-opacity="1.000000"/>
	<circle id="Ellipse 67" r="3.000000" transform="matrix(-1 8.74228e-08 -8.74228e-08 -1 19 35)" fill="#FFD100" fill-opacity="1.000000"/>
	<circle id="Ellipse 73" r="3.000000" transform="matrix(-1 8.74228e-08 -8.74228e-08 -1 19 19)" fill="#FFD100" fill-opacity="1.000000"/>
	<circle id="Ellipse 79" r="3.000000" transform="matrix(-1 8.74228e-08 -8.74228e-08 -1 19 3)" fill="#FFD100" fill-opacity="1.000000"/>
	<circle id="Ellipse 56" r="3.000000" transform="matrix(-1 8.74228e-08 -8.74228e-08 -1 3.00001 67)" fill="#FFD100" fill-opacity="1.000000"/>
	<circle id="Ellipse 62" r="3.000000" transform="matrix(-1 8.74228e-08 -8.74228e-08 -1 3.00001 51)" fill="#FFD100" fill-opacity="1.000000"/>
	<circle id="Ellipse 68" r="3.000000" transform="matrix(-1 8.74228e-08 -8.74228e-08 -1 3.00001 35)" fill="#FFD100" fill-opacity="1.000000"/>
	<circle id="Ellipse 74" r="3.000000" transform="matrix(-1 8.74228e-08 -8.74228e-08 -1 3.00001 19)" fill="#FFD100" fill-opacity="1.000000"/>
	<circle id="Ellipse 80" r="3.000000" transform="matrix(-1 8.74228e-08 -8.74228e-08 -1 3.00001 3)" fill="#FFD100" fill-opacity="1.000000"/>
</svg>
