<svg width="82.000000" height="70.000000" viewBox="0 0 82 70" fill="none" xmlns="http://www.w3.org/2000/svg" xmlns:xlink="http://www.w3.org/1999/xlink">
	<desc>
			Created with Pixso.
	</desc>
	<defs/>
	<ellipse id="Ellipse 51" cx="2.860466" cy="3.000000" rx="2.860465" ry="3.000000" fill="#FFFFFF" fill-opacity="1.000000"/>
	<ellipse id="Ellipse 57" cx="2.860466" cy="19.000000" rx="2.860465" ry="3.000000" fill="#FFFFFF" fill-opacity="1.000000"/>
	<ellipse id="Ellipse 63" cx="2.860466" cy="35.000000" rx="2.860465" ry="3.000000" fill="#FFFFFF" fill-opacity="1.000000"/>
	<ellipse id="Ellipse 69" cx="2.860466" cy="51.000000" rx="2.860465" ry="3.000000" fill="#FFFFFF" fill-opacity="1.000000"/>
	<ellipse id="Ellipse 75" cx="2.860466" cy="67.000000" rx="2.860465" ry="3.000000" fill="#FFFFFF" fill-opacity="1.000000"/>
	<ellipse id="Ellipse 52" cx="18.116264" cy="3.000000" rx="2.860465" ry="3.000000" fill="#FFFFFF" fill-opacity="1.000000"/>
	<ellipse id="Ellipse 58" cx="18.116264" cy="19.000000" rx="2.860465" ry="3.000000" fill="#FFFFFF" fill-opacity="1.000000"/>
	<ellipse id="Ellipse 64" cx="18.116264" cy="35.000000" rx="2.860465" ry="3.000000" fill="#FFFFFF" fill-opacity="1.000000"/>
	<ellipse id="Ellipse 70" cx="18.116264" cy="51.000000" rx="2.860465" ry="3.000000" fill="#FFFFFF" fill-opacity="1.000000"/>
	<ellipse id="Ellipse 76" cx="18.116264" cy="67.000000" rx="2.860465" ry="3.000000" fill="#FFFFFF" fill-opacity="1.000000"/>
	<ellipse id="Ellipse 53" cx="33.372063" cy="3.000000" rx="2.860465" ry="3.000000" fill="#FFFFFF" fill-opacity="1.000000"/>
	<ellipse id="Ellipse 59" cx="33.372063" cy="19.000000" rx="2.860465" ry="3.000000" fill="#FFFFFF" fill-opacity="1.000000"/>
	<ellipse id="Ellipse 65" cx="33.372063" cy="35.000000" rx="2.860465" ry="3.000000" fill="#FFFFFF" fill-opacity="1.000000"/>
	<ellipse id="Ellipse 71" cx="33.372063" cy="51.000000" rx="2.860465" ry="3.000000" fill="#FFFFFF" fill-opacity="1.000000"/>
	<ellipse id="Ellipse 77" cx="33.372063" cy="67.000000" rx="2.860465" ry="3.000000" fill="#FFFFFF" fill-opacity="1.000000"/>
	<ellipse id="Ellipse 54" cx="48.627922" cy="3.000000" rx="2.860465" ry="3.000000" fill="#FFFFFF" fill-opacity="1.000000"/>
	<ellipse id="Ellipse 60" cx="48.627922" cy="19.000000" rx="2.860465" ry="3.000000" fill="#FFFFFF" fill-opacity="1.000000"/>
	<ellipse id="Ellipse 66" cx="48.627922" cy="35.000000" rx="2.860465" ry="3.000000" fill="#FFFFFF" fill-opacity="1.000000"/>
	<ellipse id="Ellipse 72" cx="48.627922" cy="51.000000" rx="2.860465" ry="3.000000" fill="#FFFFFF" fill-opacity="1.000000"/>
	<ellipse id="Ellipse 78" cx="48.627922" cy="67.000000" rx="2.860465" ry="3.000000" fill="#FFFFFF" fill-opacity="1.000000"/>
	<ellipse id="Ellipse 55" cx="63.883720" cy="3.000000" rx="2.860465" ry="3.000000" fill="#FFFFFF" fill-opacity="1.000000"/>
	<ellipse id="Ellipse 61" cx="63.883720" cy="19.000000" rx="2.860465" ry="3.000000" fill="#FFFFFF" fill-opacity="1.000000"/>
	<ellipse id="Ellipse 67" cx="63.883720" cy="35.000000" rx="2.860465" ry="3.000000" fill="#FFFFFF" fill-opacity="1.000000"/>
	<ellipse id="Ellipse 73" cx="63.883720" cy="51.000000" rx="2.860465" ry="3.000000" fill="#FFFFFF" fill-opacity="1.000000"/>
	<ellipse id="Ellipse 79" cx="63.883720" cy="67.000000" rx="2.860465" ry="3.000000" fill="#FFFFFF" fill-opacity="1.000000"/>
	<ellipse id="Ellipse 56" cx="79.139519" cy="3.000000" rx="2.860465" ry="3.000000" fill="#FFFFFF" fill-opacity="1.000000"/>
	<ellipse id="Ellipse 62" cx="79.139519" cy="19.000000" rx="2.860465" ry="3.000000" fill="#FFFFFF" fill-opacity="1.000000"/>
	<ellipse id="Ellipse 68" cx="79.139519" cy="35.000000" rx="2.860465" ry="3.000000" fill="#FFFFFF" fill-opacity="1.000000"/>
	<ellipse id="Ellipse 74" cx="79.139519" cy="51.000000" rx="2.860465" ry="3.000000" fill="#FFFFFF" fill-opacity="1.000000"/>
	<ellipse id="Ellipse 80" cx="79.139519" cy="67.000000" rx="2.860465" ry="3.000000" fill="#FFFFFF" fill-opacity="1.000000"/>
</svg>
