<svg width="86.000000" height="70.000000" viewBox="0 0 86 70" fill="none" xmlns="http://www.w3.org/2000/svg" xmlns:xlink="http://www.w3.org/1999/xlink">
	<desc>
			Created with Pixso.
	</desc>
	<defs/>
	<circle id="Ellipse 51" cx="3.000000" cy="3.000000" r="3.000000" fill="#FFD100" fill-opacity="1.000000"/>
	<circle id="Ellipse 57" cx="3.000000" cy="19.000000" r="3.000000" fill="#FFD100" fill-opacity="1.000000"/>
	<circle id="Ellipse 63" cx="3.000000" cy="35.000000" r="3.000000" fill="#FFD100" fill-opacity="1.000000"/>
	<circle id="Ellipse 69" cx="3.000000" cy="51.000000" r="3.000000" fill="#FFD100" fill-opacity="1.000000"/>
	<circle id="Ellipse 75" cx="3.000000" cy="67.000000" r="3.000000" fill="#FFD100" fill-opacity="1.000000"/>
	<circle id="Ellipse 52" cx="19.000000" cy="3.000000" r="3.000000" fill="#FFD100" fill-opacity="1.000000"/>
	<circle id="Ellipse 58" cx="19.000000" cy="19.000000" r="3.000000" fill="#FFD100" fill-opacity="1.000000"/>
	<circle id="Ellipse 64" cx="19.000000" cy="35.000000" r="3.000000" fill="#FFD100" fill-opacity="1.000000"/>
	<circle id="Ellipse 70" cx="19.000000" cy="51.000000" r="3.000000" fill="#FFD100" fill-opacity="1.000000"/>
	<circle id="Ellipse 76" cx="19.000000" cy="67.000000" r="3.000000" fill="#FFD100" fill-opacity="1.000000"/>
	<circle id="Ellipse 53" cx="35.000000" cy="3.000000" r="3.000000" fill="#FFD100" fill-opacity="1.000000"/>
	<circle id="Ellipse 59" cx="35.000000" cy="19.000000" r="3.000000" fill="#FFD100" fill-opacity="1.000000"/>
	<circle id="Ellipse 65" cx="35.000000" cy="35.000000" r="3.000000" fill="#FFD100" fill-opacity="1.000000"/>
	<circle id="Ellipse 71" cx="35.000000" cy="51.000000" r="3.000000" fill="#FFD100" fill-opacity="1.000000"/>
	<circle id="Ellipse 77" cx="35.000000" cy="67.000000" r="3.000000" fill="#FFD100" fill-opacity="1.000000"/>
	<circle id="Ellipse 54" cx="51.000000" cy="3.000000" r="3.000000" fill="#FFD100" fill-opacity="1.000000"/>
	<circle id="Ellipse 60" cx="51.000000" cy="19.000000" r="3.000000" fill="#FFD100" fill-opacity="1.000000"/>
	<circle id="Ellipse 66" cx="51.000000" cy="35.000000" r="3.000000" fill="#FFD100" fill-opacity="1.000000"/>
	<circle id="Ellipse 72" cx="51.000000" cy="51.000000" r="3.000000" fill="#FFD100" fill-opacity="1.000000"/>
	<circle id="Ellipse 78" cx="51.000000" cy="67.000000" r="3.000000" fill="#FFD100" fill-opacity="1.000000"/>
	<circle id="Ellipse 55" cx="67.000000" cy="3.000000" r="3.000000" fill="#FFD100" fill-opacity="1.000000"/>
	<circle id="Ellipse 61" cx="67.000000" cy="19.000000" r="3.000000" fill="#FFD100" fill-opacity="1.000000"/>
	<circle id="Ellipse 67" cx="67.000000" cy="35.000000" r="3.000000" fill="#FFD100" fill-opacity="1.000000"/>
	<circle id="Ellipse 73" cx="67.000000" cy="51.000000" r="3.000000" fill="#FFD100" fill-opacity="1.000000"/>
	<circle id="Ellipse 79" cx="67.000000" cy="67.000000" r="3.000000" fill="#FFD100" fill-opacity="1.000000"/>
	<circle id="Ellipse 56" cx="83.000000" cy="3.000000" r="3.000000" fill="#FFD100" fill-opacity="1.000000"/>
	<circle id="Ellipse 62" cx="83.000000" cy="19.000000" r="3.000000" fill="#FFD100" fill-opacity="1.000000"/>
	<circle id="Ellipse 68" cx="83.000000" cy="35.000000" r="3.000000" fill="#FFD100" fill-opacity="1.000000"/>
	<circle id="Ellipse 74" cx="83.000000" cy="51.000000" r="3.000000" fill="#FFD100" fill-opacity="1.000000"/>
	<circle id="Ellipse 80" cx="83.000000" cy="67.000000" r="3.000000" fill="#FFD100" fill-opacity="1.000000"/>
</svg>
